<svg width="1440" height="1024" viewBox="0 0 1440 1024" xmlns="http://www.w3.org/2000/svg">
  <defs>
    <filter id="shadow"><feDropShadow dx="0" dy="4" stdDeviation="8" flood-color="black" flood-opacity="0.35"/></filter>
  </defs>
  <rect width="100%" height="100%" fill="#0b1220"/>
  <!-- Top Bar -->
  <rect x="0" y="0" width="1440" height="64" fill="#111827" />
  <text x="32" y="40" font-size="20" font-weight="700" fill="#e5e7eb" font-family="Inter, ui-sans-serif">DevOps Pipeline Auditor — Assinaturas</text>
  <!-- Nav -->
  <g transform="translate(360,16)">
    <rect x="0" y="0" rx="8" ry="8" width="138" height="32" fill="rgba(255,255,255,0.06)" /><text x="16" y="22" fill="#e5e7eb" font-size="14" font-family="Inter">Dashboard</text><rect x="150" y="0" rx="8" ry="8" width="138" height="32" fill="rgba(255,255,255,0.06)" /><text x="166" y="22" fill="#e5e7eb" font-size="14" font-family="Inter">Repositórios</text><rect x="300" y="0" rx="8" ry="8" width="138" height="32" fill="rgba(255,255,255,0.06)" /><text x="316" y="22" fill="#e5e7eb" font-size="14" font-family="Inter">Findings</text><rect x="450" y="0" rx="8" ry="8" width="138" height="32" fill="rgba(255,255,255,0.06)" /><text x="466" y="22" fill="#e5e7eb" font-size="14" font-family="Inter">Billing</text><rect x="600" y="0" rx="8" ry="8" width="138" height="32" fill="rgba(255,255,255,0.06)" /><text x="616" y="22" fill="#e5e7eb" font-size="14" font-family="Inter">Perfil</text>
  </g>
  <!-- Body container -->
  <g transform="translate(32,88)">

  <rect x="0" y="0" width="1360" height="220" rx="16" fill="#111827" stroke="#1f2937" />
  <text x="16" y="28" font-size="16" font-weight="700" fill="#e5e7eb" font-family="Inter">Minha Assinatura</text>
  <text x="16" y="48" font-size="13" fill="#94a3b8" font-family="Inter">Status atual e limites</text>

  <rect x="24" y="34" rx="999" ry="999" width="100" height="24" fill="#10b981" />
  <text x="34" y="49" font-size="12" fill="#0b1220" font-family="Inter">Plano: PRO</text>

  <rect x="120" y="34" rx="999" ry="999" width="124" height="24" fill="#10b981" />
  <text x="130" y="49" font-size="12" fill="#0b1220" font-family="Inter">Status: Ativo</text>

  <rect x="240" y="34" rx="999" ry="999" width="164" height="24" fill="#1f2937" />
  <text x="250" y="49" font-size="12" fill="#e5e7eb" font-family="Inter">Renova: 2025-10-01</text>

  <rect x="24" y="160" width="322" height="36" rx="10" fill="#22d3ee" />
  <text x="40" y="184" font-size="14" font-weight="700" fill="#0b1220" font-family="Inter">Gerenciar no Portal da Stripe</text>

  <rect x="0" y="240" width="1360" height="696" rx="16" fill="#111827" stroke="#1f2937" />
  <text x="16" y="268" font-size="16" font-weight="700" fill="#e5e7eb" font-family="Inter">Limites por Plano</text>
  
<rect x="16" y="280" width="1328" height="36" fill="#111827" stroke="#1f2937"/>
<text x="28" y="304" font-size="12" fill="#94a3b8" font-family="Inter" font-weight="600">Recurso</text>
<text x="360" y="304" font-size="12" fill="#94a3b8" font-family="Inter" font-weight="600">Básico</text>
<text x="692" y="304" font-size="12" fill="#94a3b8" font-family="Inter" font-weight="600">Pro</text>
<text x="1024" y="304" font-size="12" fill="#94a3b8" font-family="Inter" font-weight="600">Enterprise</text>
<rect x="16" y="316" width="1328" height="40" fill="rgba(255,255,255,0.02)" stroke="#1f2937"/>
<text x="28" y="340" font-size="13" fill="#e5e7eb" font-family="Inter">Item 1-1</text>
<text x="360" y="340" font-size="13" fill="#e5e7eb" font-family="Inter">Item 1-2</text>
<text x="692" y="340" font-size="13" fill="#e5e7eb" font-family="Inter">Item 1-3</text>
<text x="1024" y="340" font-size="13" fill="#e5e7eb" font-family="Inter">Item 1-4</text>
<rect x="16" y="356" width="1328" height="40" fill="rgba(255,255,255,0.02)" stroke="#1f2937"/>
<text x="28" y="380" font-size="13" fill="#e5e7eb" font-family="Inter">Item 2-1</text>
<text x="360" y="380" font-size="13" fill="#e5e7eb" font-family="Inter">Item 2-2</text>
<text x="692" y="380" font-size="13" fill="#e5e7eb" font-family="Inter">Item 2-3</text>
<text x="1024" y="380" font-size="13" fill="#e5e7eb" font-family="Inter">Item 2-4</text>
<rect x="16" y="396" width="1328" height="40" fill="rgba(255,255,255,0.02)" stroke="#1f2937"/>
<text x="28" y="420" font-size="13" fill="#e5e7eb" font-family="Inter">Item 3-1</text>
<text x="360" y="420" font-size="13" fill="#e5e7eb" font-family="Inter">Item 3-2</text>
<text x="692" y="420" font-size="13" fill="#e5e7eb" font-family="Inter">Item 3-3</text>
<text x="1024" y="420" font-size="13" fill="#e5e7eb" font-family="Inter">Item 3-4</text>
<rect x="16" y="436" width="1328" height="40" fill="rgba(255,255,255,0.02)" stroke="#1f2937"/>
<text x="28" y="460" font-size="13" fill="#e5e7eb" font-family="Inter">Item 4-1</text>
<text x="360" y="460" font-size="13" fill="#e5e7eb" font-family="Inter">Item 4-2</text>
<text x="692" y="460" font-size="13" fill="#e5e7eb" font-family="Inter">Item 4-3</text>
<text x="1024" y="460" font-size="13" fill="#e5e7eb" font-family="Inter">Item 4-4</text>
<rect x="16" y="476" width="1328" height="40" fill="rgba(255,255,255,0.02)" stroke="#1f2937"/>
<text x="28" y="500" font-size="13" fill="#e5e7eb" font-family="Inter">Item 5-1</text>
<text x="360" y="500" font-size="13" fill="#e5e7eb" font-family="Inter">Item 5-2</text>
<text x="692" y="500" font-size="13" fill="#e5e7eb" font-family="Inter">Item 5-3</text>
<text x="1024" y="500" font-size="13" fill="#e5e7eb" font-family="Inter">Item 5-4</text>
<rect x="16" y="516" width="1328" height="40" fill="rgba(255,255,255,0.02)" stroke="#1f2937"/>
<text x="28" y="540" font-size="13" fill="#e5e7eb" font-family="Inter">Item 6-1</text>
<text x="360" y="540" font-size="13" fill="#e5e7eb" font-family="Inter">Item 6-2</text>
<text x="692" y="540" font-size="13" fill="#e5e7eb" font-family="Inter">Item 6-3</text>
<text x="1024" y="540" font-size="13" fill="#e5e7eb" font-family="Inter">Item 6-4</text>
<rect x="16" y="556" width="1328" height="40" fill="rgba(255,255,255,0.02)" stroke="#1f2937"/>
<text x="28" y="580" font-size="13" fill="#e5e7eb" font-family="Inter">Item 7-1</text>
<text x="360" y="580" font-size="13" fill="#e5e7eb" font-family="Inter">Item 7-2</text>
<text x="692" y="580" font-size="13" fill="#e5e7eb" font-family="Inter">Item 7-3</text>
<text x="1024" y="580" font-size="13" fill="#e5e7eb" font-family="Inter">Item 7-4</text>
<rect x="16" y="596" width="1328" height="40" fill="rgba(255,255,255,0.02)" stroke="#1f2937"/>
<text x="28" y="620" font-size="13" fill="#e5e7eb" font-family="Inter">Item 8-1</text>
<text x="360" y="620" font-size="13" fill="#e5e7eb" font-family="Inter">Item 8-2</text>
<text x="692" y="620" font-size="13" fill="#e5e7eb" font-family="Inter">Item 8-3</text>
<text x="1024" y="620" font-size="13" fill="#e5e7eb" font-family="Inter">Item 8-4</text>
<rect x="16" y="636" width="1328" height="40" fill="rgba(255,255,255,0.02)" stroke="#1f2937"/>
<text x="28" y="660" font-size="13" fill="#e5e7eb" font-family="Inter">Item 9-1</text>
<text x="360" y="660" font-size="13" fill="#e5e7eb" font-family="Inter">Item 9-2</text>
<text x="692" y="660" font-size="13" fill="#e5e7eb" font-family="Inter">Item 9-3</text>
<text x="1024" y="660" font-size="13" fill="#e5e7eb" font-family="Inter">Item 9-4</text>
<rect x="16" y="676" width="1328" height="40" fill="rgba(255,255,255,0.02)" stroke="#1f2937"/>
<text x="28" y="700" font-size="13" fill="#e5e7eb" font-family="Inter">Item 10-1</text>
<text x="360" y="700" font-size="13" fill="#e5e7eb" font-family="Inter">Item 10-2</text>
<text x="692" y="700" font-size="13" fill="#e5e7eb" font-family="Inter">Item 10-3</text>
<text x="1024" y="700" font-size="13" fill="#e5e7eb" font-family="Inter">Item 10-4</text></g>
</svg>
