<svg width="1440" height="1024" viewBox="0 0 1440 1024" xmlns="http://www.w3.org/2000/svg">
  <defs>
    <filter id="shadow"><feDropShadow dx="0" dy="4" stdDeviation="8" flood-color="black" flood-opacity="0.35"/></filter>
  </defs>
  <rect width="100%" height="100%" fill="#0b1220"/>
  <!-- Top Bar -->
  <rect x="0" y="0" width="1440" height="64" fill="#111827" />
  <text x="32" y="40" font-size="20" font-weight="700" fill="#e5e7eb" font-family="Inter, ui-sans-serif">DevOps Pipeline Auditor — Dashboard</text>
  <!-- Nav -->
  <g transform="translate(360,16)">
    <rect x="0" y="0" rx="8" ry="8" width="138" height="32" fill="rgba(255,255,255,0.06)" /><text x="16" y="22" fill="#e5e7eb" font-size="14" font-family="Inter">Dashboard</text><rect x="150" y="0" rx="8" ry="8" width="138" height="32" fill="rgba(255,255,255,0.06)" /><text x="166" y="22" fill="#e5e7eb" font-size="14" font-family="Inter">Repositórios</text><rect x="300" y="0" rx="8" ry="8" width="138" height="32" fill="rgba(255,255,255,0.06)" /><text x="316" y="22" fill="#e5e7eb" font-size="14" font-family="Inter">Findings</text><rect x="450" y="0" rx="8" ry="8" width="138" height="32" fill="rgba(255,255,255,0.06)" /><text x="466" y="22" fill="#e5e7eb" font-size="14" font-family="Inter">Billing</text><rect x="600" y="0" rx="8" ry="8" width="138" height="32" fill="rgba(255,255,255,0.06)" /><text x="616" y="22" fill="#e5e7eb" font-size="14" font-family="Inter">Perfil</text>
  </g>
  <!-- Body container -->
  <g transform="translate(32,88)">

  <rect x="0" y="0" width="880" height="280" rx="16" fill="#111827" stroke="#1f2937" />
  <text x="16" y="28" font-size="16" font-weight="700" fill="#e5e7eb" font-family="Inter">Resumo dos Pipelines</text>
  <text x="16" y="48" font-size="13" fill="#94a3b8" font-family="Inter">Saúde, falhas e varreduras recentes</text>

  <rect x="24" y="34" rx="999" ry="999" width="92" height="24" fill="#10b981" />
  <text x="34" y="49" font-size="12" fill="#0b1220" font-family="Inter">OK 99.95%</text>

  <rect x="120" y="34" rx="999" ry="999" width="140" height="24" fill="#f59e0b" />
  <text x="130" y="49" font-size="12" fill="#0b1220" font-family="Inter">Build time ∼ 4m</text>

  <rect x="900" y="0" width="480" height="280" rx="16" fill="#111827" stroke="#1f2937" />
  <text x="916" y="28" font-size="16" font-weight="700" fill="#e5e7eb" font-family="Inter">Últimos eventos CI/CD</text>
  <text x="916" y="48" font-size="13" fill="#94a3b8" font-family="Inter">Commits, jobs e alertas</text>

  <rect x="0" y="300" width="620" height="600" rx="16" fill="#111827" stroke="#1f2937" />
  <text x="16" y="328" font-size="16" font-weight="700" fill="#e5e7eb" font-family="Inter">Top Repositórios</text>
  
<rect x="16" y="340" width="588" height="36" fill="#111827" stroke="#1f2937"/>
<text x="28" y="364" font-size="12" fill="#94a3b8" font-family="Inter" font-weight="600">Repositório</text>
<text x="224" y="364" font-size="12" fill="#94a3b8" font-family="Inter" font-weight="600">Último scan</text>
<text x="420" y="364" font-size="12" fill="#94a3b8" font-family="Inter" font-weight="600">Issues</text>
<rect x="16" y="376" width="588" height="40" fill="rgba(255,255,255,0.02)" stroke="#1f2937"/>
<text x="28" y="400" font-size="13" fill="#e5e7eb" font-family="Inter">Item 1-1</text>
<text x="224" y="400" font-size="13" fill="#e5e7eb" font-family="Inter">Item 1-2</text>
<text x="420" y="400" font-size="13" fill="#e5e7eb" font-family="Inter">Item 1-3</text>
<rect x="16" y="416" width="588" height="40" fill="rgba(255,255,255,0.02)" stroke="#1f2937"/>
<text x="28" y="440" font-size="13" fill="#e5e7eb" font-family="Inter">Item 2-1</text>
<text x="224" y="440" font-size="13" fill="#e5e7eb" font-family="Inter">Item 2-2</text>
<text x="420" y="440" font-size="13" fill="#e5e7eb" font-family="Inter">Item 2-3</text>
<rect x="16" y="456" width="588" height="40" fill="rgba(255,255,255,0.02)" stroke="#1f2937"/>
<text x="28" y="480" font-size="13" fill="#e5e7eb" font-family="Inter">Item 3-1</text>
<text x="224" y="480" font-size="13" fill="#e5e7eb" font-family="Inter">Item 3-2</text>
<text x="420" y="480" font-size="13" fill="#e5e7eb" font-family="Inter">Item 3-3</text>
<rect x="16" y="496" width="588" height="40" fill="rgba(255,255,255,0.02)" stroke="#1f2937"/>
<text x="28" y="520" font-size="13" fill="#e5e7eb" font-family="Inter">Item 4-1</text>
<text x="224" y="520" font-size="13" fill="#e5e7eb" font-family="Inter">Item 4-2</text>
<text x="420" y="520" font-size="13" fill="#e5e7eb" font-family="Inter">Item 4-3</text>
<rect x="16" y="536" width="588" height="40" fill="rgba(255,255,255,0.02)" stroke="#1f2937"/>
<text x="28" y="560" font-size="13" fill="#e5e7eb" font-family="Inter">Item 5-1</text>
<text x="224" y="560" font-size="13" fill="#e5e7eb" font-family="Inter">Item 5-2</text>
<text x="420" y="560" font-size="13" fill="#e5e7eb" font-family="Inter">Item 5-3</text>
<rect x="16" y="576" width="588" height="40" fill="rgba(255,255,255,0.02)" stroke="#1f2937"/>
<text x="28" y="600" font-size="13" fill="#e5e7eb" font-family="Inter">Item 6-1</text>
<text x="224" y="600" font-size="13" fill="#e5e7eb" font-family="Inter">Item 6-2</text>
<text x="420" y="600" font-size="13" fill="#e5e7eb" font-family="Inter">Item 6-3</text>
  <rect x="640" y="300" width="740" height="600" rx="16" fill="#111827" stroke="#1f2937" />
  <text x="656" y="328" font-size="16" font-weight="700" fill="#e5e7eb" font-family="Inter">Findings Recentes</text>
  
<rect x="656" y="340" width="708" height="36" fill="#111827" stroke="#1f2937"/>
<text x="668" y="364" font-size="12" fill="#94a3b8" font-family="Inter" font-weight="600">Tipo</text>
<text x="845" y="364" font-size="12" fill="#94a3b8" font-family="Inter" font-weight="600">Severidade</text>
<text x="1022" y="364" font-size="12" fill="#94a3b8" font-family="Inter" font-weight="600">Repositório</text>
<text x="1199" y="364" font-size="12" fill="#94a3b8" font-family="Inter" font-weight="600">Data</text>
<rect x="656" y="376" width="708" height="40" fill="rgba(255,255,255,0.02)" stroke="#1f2937"/>
<text x="668" y="400" font-size="13" fill="#e5e7eb" font-family="Inter">Item 1-1</text>
<text x="845" y="400" font-size="13" fill="#e5e7eb" font-family="Inter">Item 1-2</text>
<text x="1022" y="400" font-size="13" fill="#e5e7eb" font-family="Inter">Item 1-3</text>
<text x="1199" y="400" font-size="13" fill="#e5e7eb" font-family="Inter">Item 1-4</text>
<rect x="656" y="416" width="708" height="40" fill="rgba(255,255,255,0.02)" stroke="#1f2937"/>
<text x="668" y="440" font-size="13" fill="#e5e7eb" font-family="Inter">Item 2-1</text>
<text x="845" y="440" font-size="13" fill="#e5e7eb" font-family="Inter">Item 2-2</text>
<text x="1022" y="440" font-size="13" fill="#e5e7eb" font-family="Inter">Item 2-3</text>
<text x="1199" y="440" font-size="13" fill="#e5e7eb" font-family="Inter">Item 2-4</text>
<rect x="656" y="456" width="708" height="40" fill="rgba(255,255,255,0.02)" stroke="#1f2937"/>
<text x="668" y="480" font-size="13" fill="#e5e7eb" font-family="Inter">Item 3-1</text>
<text x="845" y="480" font-size="13" fill="#e5e7eb" font-family="Inter">Item 3-2</text>
<text x="1022" y="480" font-size="13" fill="#e5e7eb" font-family="Inter">Item 3-3</text>
<text x="1199" y="480" font-size="13" fill="#e5e7eb" font-family="Inter">Item 3-4</text>
<rect x="656" y="496" width="708" height="40" fill="rgba(255,255,255,0.02)" stroke="#1f2937"/>
<text x="668" y="520" font-size="13" fill="#e5e7eb" font-family="Inter">Item 4-1</text>
<text x="845" y="520" font-size="13" fill="#e5e7eb" font-family="Inter">Item 4-2</text>
<text x="1022" y="520" font-size="13" fill="#e5e7eb" font-family="Inter">Item 4-3</text>
<text x="1199" y="520" font-size="13" fill="#e5e7eb" font-family="Inter">Item 4-4</text>
<rect x="656" y="536" width="708" height="40" fill="rgba(255,255,255,0.02)" stroke="#1f2937"/>
<text x="668" y="560" font-size="13" fill="#e5e7eb" font-family="Inter">Item 5-1</text>
<text x="845" y="560" font-size="13" fill="#e5e7eb" font-family="Inter">Item 5-2</text>
<text x="1022" y="560" font-size="13" fill="#e5e7eb" font-family="Inter">Item 5-3</text>
<text x="1199" y="560" font-size="13" fill="#e5e7eb" font-family="Inter">Item 5-4</text>
<rect x="656" y="576" width="708" height="40" fill="rgba(255,255,255,0.02)" stroke="#1f2937"/>
<text x="668" y="600" font-size="13" fill="#e5e7eb" font-family="Inter">Item 6-1</text>
<text x="845" y="600" font-size="13" fill="#e5e7eb" font-family="Inter">Item 6-2</text>
<text x="1022" y="600" font-size="13" fill="#e5e7eb" font-family="Inter">Item 6-3</text>
<text x="1199" y="600" font-size="13" fill="#e5e7eb" font-family="Inter">Item 6-4</text></g>
</svg>
