<svg width="1440" height="1024" viewBox="0 0 1440 1024" xmlns="http://www.w3.org/2000/svg">
  <defs>
    <filter id="shadow"><feDropShadow dx="0" dy="4" stdDeviation="8" flood-color="black" flood-opacity="0.35"/></filter>
  </defs>
  <rect width="100%" height="100%" fill="#0b1220"/>
  <!-- Top Bar -->
  <rect x="0" y="0" width="1440" height="64" fill="#111827" />
  <text x="32" y="40" font-size="20" font-weight="700" fill="#e5e7eb" font-family="Inter, ui-sans-serif">DevOps Pipeline Auditor — Perfil do Usuário</text>
  <!-- Nav -->
  <g transform="translate(360,16)">
    <rect x="0" y="0" rx="8" ry="8" width="138" height="32" fill="rgba(255,255,255,0.06)" /><text x="16" y="22" fill="#e5e7eb" font-size="14" font-family="Inter">Dashboard</text><rect x="150" y="0" rx="8" ry="8" width="138" height="32" fill="rgba(255,255,255,0.06)" /><text x="166" y="22" fill="#e5e7eb" font-size="14" font-family="Inter">Repositórios</text><rect x="300" y="0" rx="8" ry="8" width="138" height="32" fill="rgba(255,255,255,0.06)" /><text x="316" y="22" fill="#e5e7eb" font-size="14" font-family="Inter">Findings</text><rect x="450" y="0" rx="8" ry="8" width="138" height="32" fill="rgba(255,255,255,0.06)" /><text x="466" y="22" fill="#e5e7eb" font-size="14" font-family="Inter">Billing</text><rect x="600" y="0" rx="8" ry="8" width="138" height="32" fill="rgba(255,255,255,0.06)" /><text x="616" y="22" fill="#e5e7eb" font-size="14" font-family="Inter">Perfil</text>
  </g>
  <!-- Body container -->
  <g transform="translate(32,88)">

  <rect x="0" y="0" width="900" height="360" rx="16" fill="#111827" stroke="#1f2937" />
  <text x="16" y="28" font-size="16" font-weight="700" fill="#e5e7eb" font-family="Inter">Informações do Perfil</text>
  

  <text x="24" y="52" font-size="14" fill="#94a3b8" font-family="Inter">Nome</text>
  <rect x="24" y="66" width="840" height="44" rx="10" fill="rgba(255,255,255,0.06)" stroke="#1f2937"/>
  <text x="24" y="140" font-size="14" fill="#94a3b8" font-family="Inter">E-mail</text>
  <rect x="24" y="154" width="840" height="44" rx="10" fill="rgba(255,255,255,0.06)" stroke="#1f2937"/>

  <rect x="24" y="220" width="202" height="36" rx="10" fill="#22d3ee" />
  <text x="40" y="244" font-size="14" font-weight="700" fill="#0b1220" font-family="Inter">Salvar alterações</text>

  <rect x="920" y="0" width="440" height="360" rx="16" fill="#111827" stroke="#1f2937" />
  <text x="936" y="28" font-size="16" font-weight="700" fill="#e5e7eb" font-family="Inter">Segurança</text>
  

  <text x="944" y="52" font-size="14" fill="#94a3b8" font-family="Inter">Nova senha</text>
  <rect x="944" y="66" width="392" height="44" rx="10" fill="rgba(255,255,255,0.06)" stroke="#1f2937"/>

  <rect x="944" y="120" width="182" height="36" rx="10" fill="rgba(255,255,255,0.08)" />
  <text x="960" y="144" font-size="14" font-weight="700" fill="#e5e7eb" font-family="Inter">Atualizar senha</text>

  <rect x="0" y="380" width="1360" height="556" rx="16" fill="#111827" stroke="#1f2937" />
  <text x="16" y="408" font-size="16" font-weight="700" fill="#e5e7eb" font-family="Inter">Chaves / Tokens</text>
  
<rect x="16" y="420" width="1328" height="36" fill="#111827" stroke="#1f2937"/>
<text x="28" y="444" font-size="12" fill="#94a3b8" font-family="Inter" font-weight="600">Nome</text>
<text x="470" y="444" font-size="12" fill="#94a3b8" font-family="Inter" font-weight="600">Último uso</text>
<text x="912" y="444" font-size="12" fill="#94a3b8" font-family="Inter" font-weight="600">Ações</text>
<rect x="16" y="456" width="1328" height="40" fill="rgba(255,255,255,0.02)" stroke="#1f2937"/>
<text x="28" y="480" font-size="13" fill="#e5e7eb" font-family="Inter">Item 1-1</text>
<text x="470" y="480" font-size="13" fill="#e5e7eb" font-family="Inter">Item 1-2</text>
<text x="912" y="480" font-size="13" fill="#e5e7eb" font-family="Inter">Item 1-3</text>
<rect x="16" y="496" width="1328" height="40" fill="rgba(255,255,255,0.02)" stroke="#1f2937"/>
<text x="28" y="520" font-size="13" fill="#e5e7eb" font-family="Inter">Item 2-1</text>
<text x="470" y="520" font-size="13" fill="#e5e7eb" font-family="Inter">Item 2-2</text>
<text x="912" y="520" font-size="13" fill="#e5e7eb" font-family="Inter">Item 2-3</text>
<rect x="16" y="536" width="1328" height="40" fill="rgba(255,255,255,0.02)" stroke="#1f2937"/>
<text x="28" y="560" font-size="13" fill="#e5e7eb" font-family="Inter">Item 3-1</text>
<text x="470" y="560" font-size="13" fill="#e5e7eb" font-family="Inter">Item 3-2</text>
<text x="912" y="560" font-size="13" fill="#e5e7eb" font-family="Inter">Item 3-3</text>
<rect x="16" y="576" width="1328" height="40" fill="rgba(255,255,255,0.02)" stroke="#1f2937"/>
<text x="28" y="600" font-size="13" fill="#e5e7eb" font-family="Inter">Item 4-1</text>
<text x="470" y="600" font-size="13" fill="#e5e7eb" font-family="Inter">Item 4-2</text>
<text x="912" y="600" font-size="13" fill="#e5e7eb" font-family="Inter">Item 4-3</text>
<rect x="16" y="616" width="1328" height="40" fill="rgba(255,255,255,0.02)" stroke="#1f2937"/>
<text x="28" y="640" font-size="13" fill="#e5e7eb" font-family="Inter">Item 5-1</text>
<text x="470" y="640" font-size="13" fill="#e5e7eb" font-family="Inter">Item 5-2</text>
<text x="912" y="640" font-size="13" fill="#e5e7eb" font-family="Inter">Item 5-3</text>
<rect x="16" y="656" width="1328" height="40" fill="rgba(255,255,255,0.02)" stroke="#1f2937"/>
<text x="28" y="680" font-size="13" fill="#e5e7eb" font-family="Inter">Item 6-1</text>
<text x="470" y="680" font-size="13" fill="#e5e7eb" font-family="Inter">Item 6-2</text>
<text x="912" y="680" font-size="13" fill="#e5e7eb" font-family="Inter">Item 6-3</text>
<rect x="16" y="696" width="1328" height="40" fill="rgba(255,255,255,0.02)" stroke="#1f2937"/>
<text x="28" y="720" font-size="13" fill="#e5e7eb" font-family="Inter">Item 7-1</text>
<text x="470" y="720" font-size="13" fill="#e5e7eb" font-family="Inter">Item 7-2</text>
<text x="912" y="720" font-size="13" fill="#e5e7eb" font-family="Inter">Item 7-3</text>
<rect x="16" y="736" width="1328" height="40" fill="rgba(255,255,255,0.02)" stroke="#1f2937"/>
<text x="28" y="760" font-size="13" fill="#e5e7eb" font-family="Inter">Item 8-1</text>
<text x="470" y="760" font-size="13" fill="#e5e7eb" font-family="Inter">Item 8-2</text>
<text x="912" y="760" font-size="13" fill="#e5e7eb" font-family="Inter">Item 8-3</text>
<rect x="16" y="776" width="1328" height="40" fill="rgba(255,255,255,0.02)" stroke="#1f2937"/>
<text x="28" y="800" font-size="13" fill="#e5e7eb" font-family="Inter">Item 9-1</text>
<text x="470" y="800" font-size="13" fill="#e5e7eb" font-family="Inter">Item 9-2</text>
<text x="912" y="800" font-size="13" fill="#e5e7eb" font-family="Inter">Item 9-3</text>
<rect x="16" y="816" width="1328" height="40" fill="rgba(255,255,255,0.02)" stroke="#1f2937"/>
<text x="28" y="840" font-size="13" fill="#e5e7eb" font-family="Inter">Item 10-1</text>
<text x="470" y="840" font-size="13" fill="#e5e7eb" font-family="Inter">Item 10-2</text>
<text x="912" y="840" font-size="13" fill="#e5e7eb" font-family="Inter">Item 10-3</text></g>
</svg>
