<svg width="1440" height="1024" viewBox="0 0 1440 1024" xmlns="http://www.w3.org/2000/svg">
  <defs>
    <filter id="shadow"><feDropShadow dx="0" dy="4" stdDeviation="8" flood-color="black" flood-opacity="0.35"/></filter>
  </defs>
  <rect width="100%" height="100%" fill="#0b1220"/>
  <!-- Top Bar -->
  <rect x="0" y="0" width="1440" height="64" fill="#111827" />
  <text x="32" y="40" font-size="20" font-weight="700" fill="#e5e7eb" font-family="Inter, ui-sans-serif">DevOps Pipeline Auditor — Repositórios</text>
  <!-- Nav -->
  <g transform="translate(360,16)">
    <rect x="0" y="0" rx="8" ry="8" width="138" height="32" fill="rgba(255,255,255,0.06)" /><text x="16" y="22" fill="#e5e7eb" font-size="14" font-family="Inter">Dashboard</text><rect x="150" y="0" rx="8" ry="8" width="138" height="32" fill="rgba(255,255,255,0.06)" /><text x="166" y="22" fill="#e5e7eb" font-size="14" font-family="Inter">Repositórios</text><rect x="300" y="0" rx="8" ry="8" width="138" height="32" fill="rgba(255,255,255,0.06)" /><text x="316" y="22" fill="#e5e7eb" font-size="14" font-family="Inter">Findings</text><rect x="450" y="0" rx="8" ry="8" width="138" height="32" fill="rgba(255,255,255,0.06)" /><text x="466" y="22" fill="#e5e7eb" font-size="14" font-family="Inter">Billing</text><rect x="600" y="0" rx="8" ry="8" width="138" height="32" fill="rgba(255,255,255,0.06)" /><text x="616" y="22" fill="#e5e7eb" font-size="14" font-family="Inter">Perfil</text>
  </g>
  <!-- Body container -->
  <g transform="translate(32,88)">

  <rect x="0" y="0" width="212" height="36" rx="10" fill="#22d3ee" />
  <text x="16" y="24" font-size="14" font-weight="700" fill="#0b1220" font-family="Inter">Novo repositório +</text>

  <rect x="160" y="0" width="202" height="36" rx="10" fill="rgba(255,255,255,0.08)" />
  <text x="176" y="24" font-size="14" font-weight="700" fill="#e5e7eb" font-family="Inter">Iniciar varredura</text>

  <rect x="0" y="56" width="1360" height="880" rx="16" fill="#111827" stroke="#1f2937" />
  <text x="16" y="84" font-size="16" font-weight="700" fill="#e5e7eb" font-family="Inter">Lista de Repositórios</text>
  
<rect x="16" y="96" width="1328" height="36" fill="#111827" stroke="#1f2937"/>
<text x="28" y="120" font-size="12" fill="#94a3b8" font-family="Inter" font-weight="600">Nome</text>
<text x="293" y="120" font-size="12" fill="#94a3b8" font-family="Inter" font-weight="600">Branch</text>
<text x="558" y="120" font-size="12" fill="#94a3b8" font-family="Inter" font-weight="600">Último Scan</text>
<text x="823" y="120" font-size="12" fill="#94a3b8" font-family="Inter" font-weight="600">Status</text>
<text x="1088" y="120" font-size="12" fill="#94a3b8" font-family="Inter" font-weight="600">Ações</text>
<rect x="16" y="132" width="1328" height="40" fill="rgba(255,255,255,0.02)" stroke="#1f2937"/>
<text x="28" y="156" font-size="13" fill="#e5e7eb" font-family="Inter">Item 1-1</text>
<text x="293" y="156" font-size="13" fill="#e5e7eb" font-family="Inter">Item 1-2</text>
<text x="558" y="156" font-size="13" fill="#e5e7eb" font-family="Inter">Item 1-3</text>
<text x="823" y="156" font-size="13" fill="#e5e7eb" font-family="Inter">Item 1-4</text>
<text x="1088" y="156" font-size="13" fill="#e5e7eb" font-family="Inter">Item 1-5</text>
<rect x="16" y="172" width="1328" height="40" fill="rgba(255,255,255,0.02)" stroke="#1f2937"/>
<text x="28" y="196" font-size="13" fill="#e5e7eb" font-family="Inter">Item 2-1</text>
<text x="293" y="196" font-size="13" fill="#e5e7eb" font-family="Inter">Item 2-2</text>
<text x="558" y="196" font-size="13" fill="#e5e7eb" font-family="Inter">Item 2-3</text>
<text x="823" y="196" font-size="13" fill="#e5e7eb" font-family="Inter">Item 2-4</text>
<text x="1088" y="196" font-size="13" fill="#e5e7eb" font-family="Inter">Item 2-5</text>
<rect x="16" y="212" width="1328" height="40" fill="rgba(255,255,255,0.02)" stroke="#1f2937"/>
<text x="28" y="236" font-size="13" fill="#e5e7eb" font-family="Inter">Item 3-1</text>
<text x="293" y="236" font-size="13" fill="#e5e7eb" font-family="Inter">Item 3-2</text>
<text x="558" y="236" font-size="13" fill="#e5e7eb" font-family="Inter">Item 3-3</text>
<text x="823" y="236" font-size="13" fill="#e5e7eb" font-family="Inter">Item 3-4</text>
<text x="1088" y="236" font-size="13" fill="#e5e7eb" font-family="Inter">Item 3-5</text>
<rect x="16" y="252" width="1328" height="40" fill="rgba(255,255,255,0.02)" stroke="#1f2937"/>
<text x="28" y="276" font-size="13" fill="#e5e7eb" font-family="Inter">Item 4-1</text>
<text x="293" y="276" font-size="13" fill="#e5e7eb" font-family="Inter">Item 4-2</text>
<text x="558" y="276" font-size="13" fill="#e5e7eb" font-family="Inter">Item 4-3</text>
<text x="823" y="276" font-size="13" fill="#e5e7eb" font-family="Inter">Item 4-4</text>
<text x="1088" y="276" font-size="13" fill="#e5e7eb" font-family="Inter">Item 4-5</text>
<rect x="16" y="292" width="1328" height="40" fill="rgba(255,255,255,0.02)" stroke="#1f2937"/>
<text x="28" y="316" font-size="13" fill="#e5e7eb" font-family="Inter">Item 5-1</text>
<text x="293" y="316" font-size="13" fill="#e5e7eb" font-family="Inter">Item 5-2</text>
<text x="558" y="316" font-size="13" fill="#e5e7eb" font-family="Inter">Item 5-3</text>
<text x="823" y="316" font-size="13" fill="#e5e7eb" font-family="Inter">Item 5-4</text>
<text x="1088" y="316" font-size="13" fill="#e5e7eb" font-family="Inter">Item 5-5</text>
<rect x="16" y="332" width="1328" height="40" fill="rgba(255,255,255,0.02)" stroke="#1f2937"/>
<text x="28" y="356" font-size="13" fill="#e5e7eb" font-family="Inter">Item 6-1</text>
<text x="293" y="356" font-size="13" fill="#e5e7eb" font-family="Inter">Item 6-2</text>
<text x="558" y="356" font-size="13" fill="#e5e7eb" font-family="Inter">Item 6-3</text>
<text x="823" y="356" font-size="13" fill="#e5e7eb" font-family="Inter">Item 6-4</text>
<text x="1088" y="356" font-size="13" fill="#e5e7eb" font-family="Inter">Item 6-5</text>
<rect x="16" y="372" width="1328" height="40" fill="rgba(255,255,255,0.02)" stroke="#1f2937"/>
<text x="28" y="396" font-size="13" fill="#e5e7eb" font-family="Inter">Item 7-1</text>
<text x="293" y="396" font-size="13" fill="#e5e7eb" font-family="Inter">Item 7-2</text>
<text x="558" y="396" font-size="13" fill="#e5e7eb" font-family="Inter">Item 7-3</text>
<text x="823" y="396" font-size="13" fill="#e5e7eb" font-family="Inter">Item 7-4</text>
<text x="1088" y="396" font-size="13" fill="#e5e7eb" font-family="Inter">Item 7-5</text>
<rect x="16" y="412" width="1328" height="40" fill="rgba(255,255,255,0.02)" stroke="#1f2937"/>
<text x="28" y="436" font-size="13" fill="#e5e7eb" font-family="Inter">Item 8-1</text>
<text x="293" y="436" font-size="13" fill="#e5e7eb" font-family="Inter">Item 8-2</text>
<text x="558" y="436" font-size="13" fill="#e5e7eb" font-family="Inter">Item 8-3</text>
<text x="823" y="436" font-size="13" fill="#e5e7eb" font-family="Inter">Item 8-4</text>
<text x="1088" y="436" font-size="13" fill="#e5e7eb" font-family="Inter">Item 8-5</text>
<rect x="16" y="452" width="1328" height="40" fill="rgba(255,255,255,0.02)" stroke="#1f2937"/>
<text x="28" y="476" font-size="13" fill="#e5e7eb" font-family="Inter">Item 9-1</text>
<text x="293" y="476" font-size="13" fill="#e5e7eb" font-family="Inter">Item 9-2</text>
<text x="558" y="476" font-size="13" fill="#e5e7eb" font-family="Inter">Item 9-3</text>
<text x="823" y="476" font-size="13" fill="#e5e7eb" font-family="Inter">Item 9-4</text>
<text x="1088" y="476" font-size="13" fill="#e5e7eb" font-family="Inter">Item 9-5</text>
<rect x="16" y="492" width="1328" height="40" fill="rgba(255,255,255,0.02)" stroke="#1f2937"/>
<text x="28" y="516" font-size="13" fill="#e5e7eb" font-family="Inter">Item 10-1</text>
<text x="293" y="516" font-size="13" fill="#e5e7eb" font-family="Inter">Item 10-2</text>
<text x="558" y="516" font-size="13" fill="#e5e7eb" font-family="Inter">Item 10-3</text>
<text x="823" y="516" font-size="13" fill="#e5e7eb" font-family="Inter">Item 10-4</text>
<text x="1088" y="516" font-size="13" fill="#e5e7eb" font-family="Inter">Item 10-5</text>
<rect x="16" y="532" width="1328" height="40" fill="rgba(255,255,255,0.02)" stroke="#1f2937"/>
<text x="28" y="556" font-size="13" fill="#e5e7eb" font-family="Inter">Item 11-1</text>
<text x="293" y="556" font-size="13" fill="#e5e7eb" font-family="Inter">Item 11-2</text>
<text x="558" y="556" font-size="13" fill="#e5e7eb" font-family="Inter">Item 11-3</text>
<text x="823" y="556" font-size="13" fill="#e5e7eb" font-family="Inter">Item 11-4</text>
<text x="1088" y="556" font-size="13" fill="#e5e7eb" font-family="Inter">Item 11-5</text>
<rect x="16" y="572" width="1328" height="40" fill="rgba(255,255,255,0.02)" stroke="#1f2937"/>
<text x="28" y="596" font-size="13" fill="#e5e7eb" font-family="Inter">Item 12-1</text>
<text x="293" y="596" font-size="13" fill="#e5e7eb" font-family="Inter">Item 12-2</text>
<text x="558" y="596" font-size="13" fill="#e5e7eb" font-family="Inter">Item 12-3</text>
<text x="823" y="596" font-size="13" fill="#e5e7eb" font-family="Inter">Item 12-4</text>
<text x="1088" y="596" font-size="13" fill="#e5e7eb" font-family="Inter">Item 12-5</text></g>
</svg>
